<svg width="193" height="1929" viewBox="0 0 193 1929" fill="none" xmlns="http://www.w3.org/2000/svg">
<path d="M48.624 71.136L61.808 50.592C62.448 49.568 62.8747 48.928 63.088 48.672C64.5813 46.2827 65.6693 44.2987 66.352 42.72C67.0347 41.1413 67.376 39.2427 67.376 37.024C67.376 34.5493 66.9707 32.6507 66.16 31.328C65.3493 30.0053 64.0267 29.344 62.192 29.344C58.096 29.344 56.048 32.5227 56.048 38.88V40.608H49.2V38.816C49.2 33.952 50.2027 30.2187 52.208 27.616C54.2133 25.0133 57.4347 23.712 61.872 23.712C65.968 23.712 69.0613 24.8853 71.152 27.232C73.2427 29.536 74.288 32.8213 74.288 37.088C74.288 39.1787 74.032 41.056 73.52 42.72C73.0507 44.3413 72.4747 45.7493 71.792 46.944C71.1093 48.1387 70.0427 49.8453 68.592 52.064L56.688 70.24H73.072V76H48.624V71.136ZM93.1385 76.576C88.8718 76.576 85.6505 75.1893 83.4745 72.416C81.3412 69.6427 80.2745 65.9307 80.2745 61.28V38.944C80.2745 34.208 81.3198 30.496 83.4105 27.808C85.5438 25.0773 88.7865 23.712 93.1385 23.712C97.4478 23.712 100.648 25.0773 102.739 27.808C104.872 30.496 105.939 34.208 105.939 38.944V61.28C105.939 65.9733 104.872 69.7067 102.739 72.48C100.605 75.2107 97.4052 76.576 93.1385 76.576ZM93.1385 70.944C97.0638 70.944 99.0265 67.744 99.0265 61.344V38.88C99.0265 35.936 98.5998 33.6107 97.7465 31.904C96.9358 30.1547 95.3998 29.28 93.1385 29.28C90.8772 29.28 89.3198 30.1547 88.4665 31.904C87.6132 33.6107 87.1865 35.936 87.1865 38.88V61.344C87.1865 67.744 89.1705 70.944 93.1385 70.944ZM126.201 76.576C121.934 76.576 118.713 75.1893 116.537 72.416C114.404 69.6427 113.337 65.9307 113.337 61.28V38.944C113.337 34.208 114.382 30.496 116.473 27.808C118.606 25.0773 121.849 23.712 126.201 23.712C130.51 23.712 133.71 25.0773 135.801 27.808C137.934 30.496 139.001 34.208 139.001 38.944V61.28C139.001 65.9733 137.934 69.7067 135.801 72.48C133.668 75.2107 130.468 76.576 126.201 76.576ZM126.201 70.944C130.126 70.944 132.089 67.744 132.089 61.344V38.88C132.089 35.936 131.662 33.6107 130.809 31.904C129.998 30.1547 128.462 29.28 126.201 29.28C123.94 29.28 122.382 30.1547 121.529 31.904C120.676 33.6107 120.249 35.936 120.249 38.88V61.344C120.249 67.744 122.233 70.944 126.201 70.944ZM160.288 62.112H145.248V54.944L158.752 24.16H166.816V56.032H172.64V62.112H166.816V76H160.288V62.112ZM160.288 56.032V32.48L151.84 56.032H160.288Z" fill="#285064"/>
<path d="M53.624 552.136L66.808 531.592C67.448 530.568 67.8747 529.928 68.088 529.672C69.5813 527.283 70.6693 525.299 71.352 523.72C72.0347 522.141 72.376 520.243 72.376 518.024C72.376 515.549 71.9707 513.651 71.16 512.328C70.3493 511.005 69.0267 510.344 67.192 510.344C63.096 510.344 61.048 513.523 61.048 519.88V521.608H54.2V519.816C54.2 514.952 55.2027 511.219 57.208 508.616C59.2133 506.013 62.4347 504.712 66.872 504.712C70.968 504.712 74.0613 505.885 76.152 508.232C78.2427 510.536 79.288 513.821 79.288 518.088C79.288 520.179 79.032 522.056 78.52 523.72C78.0507 525.341 77.4747 526.749 76.792 527.944C76.1093 529.139 75.0427 530.845 73.592 533.064L61.688 551.24H78.072V557H53.624V552.136ZM98.1385 557.576C93.8718 557.576 90.6505 556.189 88.4745 553.416C86.3412 550.643 85.2745 546.931 85.2745 542.28V519.944C85.2745 515.208 86.3198 511.496 88.4105 508.808C90.5438 506.077 93.7865 504.712 98.1385 504.712C102.448 504.712 105.648 506.077 107.739 508.808C109.872 511.496 110.939 515.208 110.939 519.944V542.28C110.939 546.973 109.872 550.707 107.739 553.48C105.605 556.211 102.405 557.576 98.1385 557.576ZM98.1385 551.944C102.064 551.944 104.027 548.744 104.027 542.344V519.88C104.027 516.936 103.6 514.611 102.747 512.904C101.936 511.155 100.4 510.28 98.1385 510.28C95.8772 510.28 94.3198 511.155 93.4665 512.904C92.6132 514.611 92.1865 516.936 92.1865 519.88V542.344C92.1865 548.744 94.1705 551.944 98.1385 551.944ZM131.201 557.576C126.934 557.576 123.713 556.189 121.537 553.416C119.404 550.643 118.337 546.931 118.337 542.28V519.944C118.337 515.208 119.382 511.496 121.473 508.808C123.606 506.077 126.849 504.712 131.201 504.712C135.51 504.712 138.71 506.077 140.801 508.808C142.934 511.496 144.001 515.208 144.001 519.944V542.28C144.001 546.973 142.934 550.707 140.801 553.48C138.668 556.211 135.468 557.576 131.201 557.576ZM131.201 551.944C135.126 551.944 137.089 548.744 137.089 542.344V519.88C137.089 516.936 136.662 514.611 135.809 512.904C134.998 511.155 133.462 510.28 131.201 510.28C128.94 510.28 127.382 511.155 126.529 512.904C125.676 514.611 125.249 516.936 125.249 519.88V542.344C125.249 548.744 127.233 551.944 131.201 551.944ZM162.359 510.536H148.471V505.16H169.207V508.488L159.607 557H153.015L162.359 510.536Z" fill="#285064"/>
<path d="M48.624 1011.14L61.808 990.592C62.448 989.568 62.8747 988.928 63.088 988.672C64.5813 986.283 65.6693 984.299 66.352 982.72C67.0347 981.141 67.376 979.243 67.376 977.024C67.376 974.549 66.9707 972.651 66.16 971.328C65.3493 970.005 64.0267 969.344 62.192 969.344C58.096 969.344 56.048 972.523 56.048 978.88V980.608H49.2V978.816C49.2 973.952 50.2027 970.219 52.208 967.616C54.2133 965.013 57.4347 963.712 61.872 963.712C65.968 963.712 69.0613 964.885 71.152 967.232C73.2427 969.536 74.288 972.821 74.288 977.088C74.288 979.179 74.032 981.056 73.52 982.72C73.0507 984.341 72.4747 985.749 71.792 986.944C71.1093 988.139 70.0427 989.845 68.592 992.064L56.688 1010.24H73.072V1016H48.624V1011.14ZM93.1385 1016.58C88.8718 1016.58 85.6505 1015.19 83.4745 1012.42C81.3412 1009.64 80.2745 1005.93 80.2745 1001.28V978.944C80.2745 974.208 81.3198 970.496 83.4105 967.808C85.5438 965.077 88.7865 963.712 93.1385 963.712C97.4478 963.712 100.648 965.077 102.739 967.808C104.872 970.496 105.939 974.208 105.939 978.944V1001.28C105.939 1005.97 104.872 1009.71 102.739 1012.48C100.605 1015.21 97.4052 1016.58 93.1385 1016.58ZM93.1385 1010.94C97.0638 1010.94 99.0265 1007.74 99.0265 1001.34V978.88C99.0265 975.936 98.5998 973.611 97.7465 971.904C96.9358 970.155 95.3998 969.28 93.1385 969.28C90.8772 969.28 89.3198 970.155 88.4665 971.904C87.6132 973.611 87.1865 975.936 87.1865 978.88V1001.34C87.1865 1007.74 89.1705 1010.94 93.1385 1010.94ZM120.569 973.12C120.484 973.248 119.182 973.547 116.665 974.016C114.19 974.485 112.484 974.805 111.545 974.976V969.792C116.75 968.555 120.313 966.677 122.233 964.16H127.417V1016H120.569V973.12ZM145.944 973.12C145.859 973.248 144.557 973.547 142.04 974.016C139.565 974.485 137.859 974.805 136.92 974.976V969.792C142.125 968.555 145.688 966.677 147.608 964.16H152.792V1016H145.944V973.12Z" fill="#285064"/>
<path d="M48.624 1898.14L61.808 1877.59C62.448 1876.57 62.8747 1875.93 63.088 1875.67C64.5813 1873.28 65.6693 1871.3 66.352 1869.72C67.0347 1868.14 67.376 1866.24 67.376 1864.02C67.376 1861.55 66.9707 1859.65 66.16 1858.33C65.3493 1857.01 64.0267 1856.34 62.192 1856.34C58.096 1856.34 56.048 1859.52 56.048 1865.88V1867.61H49.2V1865.82C49.2 1860.95 50.2027 1857.22 52.208 1854.62C54.2133 1852.01 57.4347 1850.71 61.872 1850.71C65.968 1850.71 69.0613 1851.89 71.152 1854.23C73.2427 1856.54 74.288 1859.82 74.288 1864.09C74.288 1866.18 74.032 1868.06 73.52 1869.72C73.0507 1871.34 72.4747 1872.75 71.792 1873.94C71.1093 1875.14 70.0427 1876.85 68.592 1879.06L56.688 1897.24H73.072V1903H48.624V1898.14ZM93.1385 1903.58C88.8718 1903.58 85.6505 1902.19 83.4745 1899.42C81.3412 1896.64 80.2745 1892.93 80.2745 1888.28V1865.94C80.2745 1861.21 81.3198 1857.5 83.4105 1854.81C85.5438 1852.08 88.7865 1850.71 93.1385 1850.71C97.4478 1850.71 100.648 1852.08 102.739 1854.81C104.872 1857.5 105.939 1861.21 105.939 1865.94V1888.28C105.939 1892.97 104.872 1896.71 102.739 1899.48C100.605 1902.21 97.4052 1903.58 93.1385 1903.58ZM93.1385 1897.94C97.0638 1897.94 99.0265 1894.74 99.0265 1888.34V1865.88C99.0265 1862.94 98.5998 1860.61 97.7465 1858.9C96.9358 1857.15 95.3998 1856.28 93.1385 1856.28C90.8772 1856.28 89.3198 1857.15 88.4665 1858.9C87.6132 1860.61 87.1865 1862.94 87.1865 1865.88V1888.34C87.1865 1894.74 89.1705 1897.94 93.1385 1897.94ZM120.569 1860.12C120.484 1860.25 119.182 1860.55 116.665 1861.02C114.19 1861.49 112.484 1861.81 111.545 1861.98V1856.79C116.75 1855.55 120.313 1853.68 122.233 1851.16H127.417V1903H120.569V1860.12ZM152.6 1889.11H137.56V1881.94L151.064 1851.16H159.128V1883.03H164.952V1889.11H159.128V1903H152.6V1889.11ZM152.6 1883.03V1859.48L144.152 1883.03H152.6Z" fill="#285064"/>
<circle cx="15" cy="52" r="15" fill="#2D7E97"/>
<circle cx="15" cy="536" r="15" fill="#2D7E97"/>
<circle cx="15" cy="991" r="15" fill="#2D7E97"/>
<circle cx="15" cy="1881" r="15" fill="#2D7E97"/>
<path d="M15 51V1882" stroke="#2D7E97" stroke-width="4"/>
</svg>
