<svg width="52" height="50" viewBox="0 0 52 50" fill="none" xmlns="http://www.w3.org/2000/svg">
<path d="M51.227 24.6331C51.227 38.2376 39.7848 49.2662 25.6702 49.2662C11.5555 49.2662 0.113281 38.2376 0.113281 24.6331C0.113281 11.0286 11.5555 0 25.6702 0C39.7848 0 51.227 11.0286 51.227 24.6331Z" fill="#FFC34F"/>
<path d="M48.1158 24.6333C48.1158 36.5816 38.0666 46.2676 25.6702 46.2676C13.2738 46.2676 3.22461 36.5816 3.22461 24.6333C3.22461 12.685 13.2738 2.99902 25.6702 2.99902C38.0666 2.99902 48.1158 12.685 48.1158 24.6333Z" fill="#164352"/>
<path d="M25.6494 10.916C20.2245 10.916 15.8369 15.2198 15.8369 20.541C15.8369 27.7598 25.6494 38.416 25.6494 38.416C25.6494 38.416 35.4619 27.7598 35.4619 20.541C35.4619 15.2198 31.0743 10.916 25.6494 10.916ZM25.6494 23.9785C23.715 23.9785 22.145 22.4385 22.145 20.541C22.145 18.6435 23.715 17.1035 25.6494 17.1035C27.5839 17.1035 29.1539 18.6435 29.1539 20.541C29.1539 22.4385 27.5839 23.9785 25.6494 23.9785Z" fill="white"/>
</svg>
