<svg width="50" height="50" viewBox="0 0 50 50" fill="none" xmlns="http://www.w3.org/2000/svg">
<path d="M49.2914 24.5501C49.2914 38.1087 38.467 49.1002 25.1144 49.1002C11.7619 49.1002 0.9375 38.1087 0.9375 24.5501C0.9375 10.9915 11.7619 0 25.1144 0C38.467 0 49.2914 10.9915 49.2914 24.5501Z" fill="#FFC34F"/>
<path d="M46.3482 24.5497C46.3482 36.4578 36.8416 46.1112 25.1145 46.1112C13.3875 46.1112 3.88086 36.4578 3.88086 24.5497C3.88086 12.6417 13.3875 2.98828 25.1145 2.98828C36.8416 2.98828 46.3482 12.6417 46.3482 24.5497Z" fill="#164352"/>
<path d="M37.8832 13.667H12.2075C10.4423 13.667 9.01409 14.942 9.01409 16.5003L8.99805 33.5003C8.99805 35.0587 10.4423 36.3337 12.2075 36.3337H37.8832C39.6484 36.3337 41.0926 35.0587 41.0926 33.5003V16.5003C41.0926 14.942 39.6484 13.667 37.8832 13.667ZM37.8832 19.3337L25.0453 26.417L12.2075 19.3337V16.5003L25.0453 23.5837L37.8832 16.5003V19.3337Z" fill="white"/>
</svg>
