<svg width="52" height="50" viewBox="0 0 52 50" fill="none" xmlns="http://www.w3.org/2000/svg">
<path d="M51.1137 24.6331C51.1137 38.2376 39.6715 49.2662 25.5569 49.2662C11.4422 49.2662 0 38.2376 0 24.6331C0 11.0286 11.4422 0 25.5569 0C39.6715 0 51.1137 11.0286 51.1137 24.6331Z" fill="#FFC34F"/>
<path d="M48.0025 24.6333C48.0025 36.5816 37.9533 46.2676 25.5569 46.2676C13.1606 46.2676 3.11133 36.5816 3.11133 24.6333C3.11133 12.685 13.1606 2.99902 25.5569 2.99902C37.9533 2.99902 48.0025 12.685 48.0025 24.6333Z" fill="#164352"/>
<path d="M35.6609 31.1849C33.8448 31.1849 32.1012 30.8994 30.4739 30.3713C29.9654 30.2143 29.3988 30.3285 28.9919 30.7139L25.7955 33.8543C21.6836 31.7987 18.3128 28.5013 16.2206 24.4474L19.4171 21.2927C19.8239 20.9216 19.9401 20.3649 19.7803 19.8652C19.2427 18.2665 18.9521 16.5536 18.9521 14.7692C18.9521 13.9841 18.2983 13.3418 17.4992 13.3418H12.4139C11.6148 13.3418 10.9609 13.9841 10.9609 14.7692C10.9609 28.173 22.0178 39.0359 35.6609 39.0359C36.4601 39.0359 37.1139 38.3936 37.1139 37.6085V32.6124C37.1139 31.8273 36.4601 31.1849 35.6609 31.1849ZM37.1139 17.6241H32.7551V13.3418H29.8492V17.6241H25.4903V20.4791H29.8492V24.7614H32.7551V20.4791H37.1139V17.6241Z" fill="white"/>
</svg>
