<svg width="177" height="3290" viewBox="0 0 177 3290" fill="none" xmlns="http://www.w3.org/2000/svg">
<path d="M56.944 33.12C56.8587 33.248 55.5573 33.5467 53.04 34.016C50.5653 34.4853 48.8587 34.8053 47.92 34.976V29.792C53.1253 28.5547 56.688 26.6773 58.608 24.16H63.792V76H56.944V33.12ZM87.055 76.576C83.0017 76.576 79.887 75.4667 77.711 73.248C75.535 71.0293 74.4043 67.8507 74.319 63.712V63.136H81.167C81.167 65.7813 81.5937 67.744 82.447 69.024C83.343 70.2613 84.9003 70.88 87.119 70.88C90.959 70.88 92.879 67.1893 92.879 59.808V51.936C92.1963 53.0453 91.215 53.92 89.935 54.56C88.6977 55.2 87.1617 55.52 85.327 55.52C81.2737 55.52 78.3937 54.24 76.687 51.68C75.023 49.0773 74.191 45.3653 74.191 40.544C74.191 35.4667 75.2363 31.392 77.327 28.32C79.4177 25.248 82.6603 23.712 87.055 23.712C91.3217 23.712 94.5003 25.2907 96.591 28.448C98.7243 31.5627 99.791 35.6373 99.791 40.672V58.08C99.791 63.6693 98.8097 68.1493 96.847 71.52C94.8843 74.8907 91.6203 76.576 87.055 76.576ZM87.055 50.336C89.5723 50.336 91.5137 49.1413 92.879 46.752V39.072C92.879 32.5867 90.9377 29.344 87.055 29.344C84.9217 29.344 83.3857 30.24 82.447 32.032C81.551 33.7813 81.103 36.064 81.103 38.88C81.103 41.4827 81.2097 43.552 81.423 45.088C81.6363 46.624 82.1697 47.8827 83.023 48.864C83.8763 49.8453 85.2203 50.336 87.055 50.336ZM119.5 76.576C114.977 76.576 111.713 75.2747 109.708 72.672C107.703 70.0693 106.7 66.3147 106.7 61.408C106.7 58.1227 107.233 55.4987 108.3 53.536C109.409 51.5733 111.009 49.952 113.1 48.672C109.26 46.112 107.34 42.2507 107.34 37.088C107.34 32.864 108.343 29.5787 110.348 27.232C112.353 24.8853 115.404 23.712 119.5 23.712C123.553 23.712 126.561 24.8853 128.524 27.232C130.529 29.5787 131.532 32.864 131.532 37.088C131.532 39.8613 131.041 42.1867 130.06 44.064C129.079 45.8987 127.649 47.4347 125.772 48.672C127.863 49.9947 129.463 51.6373 130.572 53.6C131.681 55.5627 132.236 58.1653 132.236 61.408C132.236 66.272 131.233 70.0267 129.228 72.672C127.223 75.2747 123.98 76.576 119.5 76.576ZM119.5 45.536C123.041 45.4933 124.812 42.5493 124.812 36.704C124.812 34.4 124.385 32.544 123.532 31.136C122.721 29.728 121.377 29.024 119.5 29.024C117.623 29.024 116.236 29.728 115.34 31.136C114.487 32.544 114.06 34.4 114.06 36.704C114.06 39.264 114.465 41.376 115.276 43.04C116.087 44.6613 117.495 45.4933 119.5 45.536ZM119.5 71.136C121.804 71.136 123.404 70.304 124.3 68.64C125.196 66.9333 125.644 64.5653 125.644 61.536C125.644 58.7627 125.153 56.5013 124.172 54.752C123.233 53.0027 121.676 52.1067 119.5 52.064C117.281 52.1067 115.681 53.0027 114.7 54.752C113.719 56.5013 113.228 58.7627 113.228 61.536C113.228 64.5653 113.676 66.9333 114.572 68.64C115.511 70.304 117.153 71.136 119.5 71.136ZM151.438 76.576C146.915 76.576 143.651 75.2747 141.646 72.672C139.64 70.0693 138.638 66.3147 138.638 61.408C138.638 58.1227 139.171 55.4987 140.238 53.536C141.347 51.5733 142.947 49.952 145.038 48.672C141.198 46.112 139.278 42.2507 139.278 37.088C139.278 32.864 140.28 29.5787 142.286 27.232C144.291 24.8853 147.342 23.712 151.438 23.712C155.491 23.712 158.499 24.8853 160.462 27.232C162.467 29.5787 163.47 32.864 163.47 37.088C163.47 39.8613 162.979 42.1867 161.998 44.064C161.016 45.8987 159.587 47.4347 157.71 48.672C159.8 49.9947 161.4 51.6373 162.51 53.6C163.619 55.5627 164.174 58.1653 164.174 61.408C164.174 66.272 163.171 70.0267 161.166 72.672C159.16 75.2747 155.918 76.576 151.438 76.576ZM151.438 45.536C154.979 45.4933 156.75 42.5493 156.75 36.704C156.75 34.4 156.323 32.544 155.47 31.136C154.659 29.728 153.315 29.024 151.438 29.024C149.56 29.024 148.174 29.728 147.278 31.136C146.424 32.544 145.998 34.4 145.998 36.704C145.998 39.264 146.403 41.376 147.214 43.04C148.024 44.6613 149.432 45.4933 151.438 45.536ZM151.438 71.136C153.742 71.136 155.342 70.304 156.238 68.64C157.134 66.9333 157.582 64.5653 157.582 61.536C157.582 58.7627 157.091 56.5013 156.11 54.752C155.171 53.0027 153.614 52.1067 151.438 52.064C149.219 52.1067 147.619 53.0027 146.638 54.752C145.656 56.5013 145.166 58.7627 145.166 61.536C145.166 64.5653 145.614 66.9333 146.51 68.64C147.448 70.304 149.091 71.136 151.438 71.136Z" fill="#285064"/>
<path d="M56.944 753.12C56.8587 753.248 55.5573 753.547 53.04 754.016C50.5653 754.485 48.8587 754.805 47.92 754.976V749.792C53.1253 748.555 56.688 746.677 58.608 744.16H63.792V796H56.944V753.12ZM87.055 796.576C83.0017 796.576 79.887 795.467 77.711 793.248C75.535 791.029 74.4043 787.851 74.319 783.712V783.136H81.167C81.167 785.781 81.5937 787.744 82.447 789.024C83.343 790.261 84.9003 790.88 87.119 790.88C90.959 790.88 92.879 787.189 92.879 779.808V771.936C92.1963 773.045 91.215 773.92 89.935 774.56C88.6977 775.2 87.1617 775.52 85.327 775.52C81.2737 775.52 78.3937 774.24 76.687 771.68C75.023 769.077 74.191 765.365 74.191 760.544C74.191 755.467 75.2363 751.392 77.327 748.32C79.4177 745.248 82.6603 743.712 87.055 743.712C91.3217 743.712 94.5003 745.291 96.591 748.448C98.7243 751.563 99.791 755.637 99.791 760.672V778.08C99.791 783.669 98.8097 788.149 96.847 791.52C94.8843 794.891 91.6203 796.576 87.055 796.576ZM87.055 770.336C89.5723 770.336 91.5137 769.141 92.879 766.752V759.072C92.879 752.587 90.9377 749.344 87.055 749.344C84.9217 749.344 83.3857 750.24 82.447 752.032C81.551 753.781 81.103 756.064 81.103 758.88C81.103 761.483 81.2097 763.552 81.423 765.088C81.6363 766.624 82.1697 767.883 83.023 768.864C83.8763 769.845 85.2203 770.336 87.055 770.336ZM119.18 796.576C115.127 796.576 112.012 795.467 109.836 793.248C107.66 791.029 106.529 787.851 106.444 783.712V783.136H113.292C113.292 785.781 113.719 787.744 114.572 789.024C115.468 790.261 117.025 790.88 119.244 790.88C123.084 790.88 125.004 787.189 125.004 779.808V771.936C124.321 773.045 123.34 773.92 122.06 774.56C120.823 775.2 119.287 775.52 117.452 775.52C113.399 775.52 110.519 774.24 108.812 771.68C107.148 769.077 106.316 765.365 106.316 760.544C106.316 755.467 107.361 751.392 109.452 748.32C111.543 745.248 114.785 743.712 119.18 743.712C123.447 743.712 126.625 745.291 128.716 748.448C130.849 751.563 131.916 755.637 131.916 760.672V778.08C131.916 783.669 130.935 788.149 128.972 791.52C127.009 794.891 123.745 796.576 119.18 796.576ZM119.18 770.336C121.697 770.336 123.639 769.141 125.004 766.752V759.072C125.004 752.587 123.063 749.344 119.18 749.344C117.047 749.344 115.511 750.24 114.572 752.032C113.676 753.781 113.228 756.064 113.228 758.88C113.228 761.483 113.335 763.552 113.548 765.088C113.761 766.624 114.295 767.883 115.148 768.864C116.001 769.845 117.345 770.336 119.18 770.336ZM150.857 796.576C146.718 796.576 143.561 795.424 141.385 793.12C139.252 790.773 138.185 787.488 138.185 783.264V781.536H144.969V782.688C145.054 785.333 145.502 787.36 146.313 788.768C147.166 790.176 148.681 790.88 150.857 790.88C153.161 790.88 154.718 790.091 155.529 788.512C156.382 786.891 156.809 784.501 156.809 781.344C156.809 778.443 156.276 776.181 155.209 774.56C154.142 772.896 152.414 771.979 150.025 771.808C149.854 771.765 149.534 771.744 149.065 771.744V764.896H149.961C152.393 764.811 154.142 764.171 155.209 762.976C156.276 761.781 156.809 759.797 156.809 757.024C156.809 754.464 156.382 752.544 155.529 751.264C154.676 749.941 153.14 749.28 150.921 749.28C148.702 749.28 147.166 749.984 146.313 751.392C145.502 752.8 145.054 754.869 144.969 757.6V758.688H138.185V756.96C138.185 752.736 139.252 749.472 141.385 747.168C143.561 744.864 146.74 743.712 150.921 743.712C155.102 743.712 158.26 744.885 160.393 747.232C162.569 749.536 163.657 752.8 163.657 757.024C163.657 760.053 162.996 762.528 161.673 764.448C160.35 766.368 158.537 767.669 156.233 768.352C158.58 769.077 160.393 770.549 161.673 772.768C162.996 774.987 163.657 777.845 163.657 781.344C163.657 786.165 162.612 789.92 160.521 792.608C158.473 795.253 155.252 796.576 150.857 796.576Z" fill="#285064"/>
<path d="M56.944 1110.12C56.8587 1110.25 55.5573 1110.55 53.04 1111.02C50.5653 1111.49 48.8587 1111.81 47.92 1111.98V1106.79C53.1253 1105.55 56.688 1103.68 58.608 1101.16H63.792V1153H56.944V1110.12ZM87.055 1153.58C83.0017 1153.58 79.887 1152.47 77.711 1150.25C75.535 1148.03 74.4043 1144.85 74.319 1140.71V1140.14H81.167C81.167 1142.78 81.5937 1144.74 82.447 1146.02C83.343 1147.26 84.9003 1147.88 87.119 1147.88C90.959 1147.88 92.879 1144.19 92.879 1136.81V1128.94C92.1963 1130.05 91.215 1130.92 89.935 1131.56C88.6977 1132.2 87.1617 1132.52 85.327 1132.52C81.2737 1132.52 78.3937 1131.24 76.687 1128.68C75.023 1126.08 74.191 1122.37 74.191 1117.54C74.191 1112.47 75.2363 1108.39 77.327 1105.32C79.4177 1102.25 82.6603 1100.71 87.055 1100.71C91.3217 1100.71 94.5003 1102.29 96.591 1105.45C98.7243 1108.56 99.791 1112.64 99.791 1117.67V1135.08C99.791 1140.67 98.8097 1145.15 96.847 1148.52C94.8843 1151.89 91.6203 1153.58 87.055 1153.58ZM87.055 1127.34C89.5723 1127.34 91.5137 1126.14 92.879 1123.75V1116.07C92.879 1109.59 90.9377 1106.34 87.055 1106.34C84.9217 1106.34 83.3857 1107.24 82.447 1109.03C81.551 1110.78 81.103 1113.06 81.103 1115.88C81.103 1118.48 81.2097 1120.55 81.423 1122.09C81.6363 1123.62 82.1697 1124.88 83.023 1125.86C83.8763 1126.85 85.2203 1127.34 87.055 1127.34ZM119.18 1153.58C115.127 1153.58 112.012 1152.47 109.836 1150.25C107.66 1148.03 106.529 1144.85 106.444 1140.71V1140.14H113.292C113.292 1142.78 113.719 1144.74 114.572 1146.02C115.468 1147.26 117.025 1147.88 119.244 1147.88C123.084 1147.88 125.004 1144.19 125.004 1136.81V1128.94C124.321 1130.05 123.34 1130.92 122.06 1131.56C120.823 1132.2 119.287 1132.52 117.452 1132.52C113.399 1132.52 110.519 1131.24 108.812 1128.68C107.148 1126.08 106.316 1122.37 106.316 1117.54C106.316 1112.47 107.361 1108.39 109.452 1105.32C111.543 1102.25 114.785 1100.71 119.18 1100.71C123.447 1100.71 126.625 1102.29 128.716 1105.45C130.849 1108.56 131.916 1112.64 131.916 1117.67V1135.08C131.916 1140.67 130.935 1145.15 128.972 1148.52C127.009 1151.89 123.745 1153.58 119.18 1153.58ZM119.18 1127.34C121.697 1127.34 123.639 1126.14 125.004 1123.75V1116.07C125.004 1109.59 123.063 1106.34 119.18 1106.34C117.047 1106.34 115.511 1107.24 114.572 1109.03C113.676 1110.78 113.228 1113.06 113.228 1115.88C113.228 1118.48 113.335 1120.55 113.548 1122.09C113.761 1123.62 114.295 1124.88 115.148 1125.86C116.001 1126.85 117.345 1127.34 119.18 1127.34ZM153.225 1139.11H138.185V1131.94L151.689 1101.16H159.753V1133.03H165.577V1139.11H159.753V1153H153.225V1139.11ZM153.225 1133.03V1109.48L144.777 1133.03H153.225Z" fill="#285064"/>
<path d="M56.944 1533.12C56.8587 1533.25 55.5573 1533.55 53.04 1534.02C50.5653 1534.49 48.8587 1534.81 47.92 1534.98V1529.79C53.1253 1528.55 56.688 1526.68 58.608 1524.16H63.792V1576H56.944V1533.12ZM87.055 1576.58C83.0017 1576.58 79.887 1575.47 77.711 1573.25C75.535 1571.03 74.4043 1567.85 74.319 1563.71V1563.14H81.167C81.167 1565.78 81.5937 1567.74 82.447 1569.02C83.343 1570.26 84.9003 1570.88 87.119 1570.88C90.959 1570.88 92.879 1567.19 92.879 1559.81V1551.94C92.1963 1553.05 91.215 1553.92 89.935 1554.56C88.6977 1555.2 87.1617 1555.52 85.327 1555.52C81.2737 1555.52 78.3937 1554.24 76.687 1551.68C75.023 1549.08 74.191 1545.37 74.191 1540.54C74.191 1535.47 75.2363 1531.39 77.327 1528.32C79.4177 1525.25 82.6603 1523.71 87.055 1523.71C91.3217 1523.71 94.5003 1525.29 96.591 1528.45C98.7243 1531.56 99.791 1535.64 99.791 1540.67V1558.08C99.791 1563.67 98.8097 1568.15 96.847 1571.52C94.8843 1574.89 91.6203 1576.58 87.055 1576.58ZM87.055 1550.34C89.5723 1550.34 91.5137 1549.14 92.879 1546.75V1539.07C92.879 1532.59 90.9377 1529.34 87.055 1529.34C84.9217 1529.34 83.3857 1530.24 82.447 1532.03C81.551 1533.78 81.103 1536.06 81.103 1538.88C81.103 1541.48 81.2097 1543.55 81.423 1545.09C81.6363 1546.62 82.1697 1547.88 83.023 1548.86C83.8763 1549.85 85.2203 1550.34 87.055 1550.34ZM119.18 1576.58C115.127 1576.58 112.012 1575.47 109.836 1573.25C107.66 1571.03 106.529 1567.85 106.444 1563.71V1563.14H113.292C113.292 1565.78 113.719 1567.74 114.572 1569.02C115.468 1570.26 117.025 1570.88 119.244 1570.88C123.084 1570.88 125.004 1567.19 125.004 1559.81V1551.94C124.321 1553.05 123.34 1553.92 122.06 1554.56C120.823 1555.2 119.287 1555.52 117.452 1555.52C113.399 1555.52 110.519 1554.24 108.812 1551.68C107.148 1549.08 106.316 1545.37 106.316 1540.54C106.316 1535.47 107.361 1531.39 109.452 1528.32C111.543 1525.25 114.785 1523.71 119.18 1523.71C123.447 1523.71 126.625 1525.29 128.716 1528.45C130.849 1531.56 131.916 1535.64 131.916 1540.67V1558.08C131.916 1563.67 130.935 1568.15 128.972 1571.52C127.009 1574.89 123.745 1576.58 119.18 1576.58ZM119.18 1550.34C121.697 1550.34 123.639 1549.14 125.004 1546.75V1539.07C125.004 1532.59 123.063 1529.34 119.18 1529.34C117.047 1529.34 115.511 1530.24 114.572 1532.03C113.676 1533.78 113.228 1536.06 113.228 1538.88C113.228 1541.48 113.335 1543.55 113.548 1545.09C113.761 1546.62 114.295 1547.88 115.148 1548.86C116.001 1549.85 117.345 1550.34 119.18 1550.34ZM151.177 1576.51C146.697 1576.51 143.476 1575.25 141.513 1572.74C139.593 1570.18 138.633 1566.42 138.633 1561.47H145.481C145.481 1564.37 145.865 1566.7 146.633 1568.45C147.444 1570.2 149.001 1571.07 151.305 1571.07C153.054 1571.07 154.356 1570.56 155.209 1569.54C156.062 1568.51 156.596 1567.17 156.809 1565.5C157.065 1563.8 157.193 1561.54 157.193 1558.72C157.193 1556.12 157.044 1554.05 156.745 1552.51C156.489 1550.93 155.934 1549.74 155.081 1548.93C154.27 1548.07 153.033 1547.65 151.369 1547.65C150.046 1547.65 148.873 1548.05 147.849 1548.86C146.868 1549.67 146.121 1550.7 145.609 1551.94H139.785V1524.16H162.121V1531.01H145.993L145.545 1545.34C147.38 1543.42 149.876 1542.46 153.033 1542.46C157.001 1542.46 159.817 1543.83 161.481 1546.56C163.188 1549.25 164.041 1553 164.041 1557.82C164.041 1563.71 163.081 1568.3 161.161 1571.58C159.241 1574.87 155.913 1576.51 151.177 1576.51Z" fill="#285064"/>
<path d="M56.944 2177.12C56.8587 2177.25 55.5573 2177.55 53.04 2178.02C50.5653 2178.49 48.8587 2178.81 47.92 2178.98V2173.79C53.1253 2172.55 56.688 2170.68 58.608 2168.16H63.792V2220H56.944V2177.12ZM87.055 2220.58C83.0017 2220.58 79.887 2219.47 77.711 2217.25C75.535 2215.03 74.4043 2211.85 74.319 2207.71V2207.14H81.167C81.167 2209.78 81.5937 2211.74 82.447 2213.02C83.343 2214.26 84.9003 2214.88 87.119 2214.88C90.959 2214.88 92.879 2211.19 92.879 2203.81V2195.94C92.1963 2197.05 91.215 2197.92 89.935 2198.56C88.6977 2199.2 87.1617 2199.52 85.327 2199.52C81.2737 2199.52 78.3937 2198.24 76.687 2195.68C75.023 2193.08 74.191 2189.37 74.191 2184.54C74.191 2179.47 75.2363 2175.39 77.327 2172.32C79.4177 2169.25 82.6603 2167.71 87.055 2167.71C91.3217 2167.71 94.5003 2169.29 96.591 2172.45C98.7243 2175.56 99.791 2179.64 99.791 2184.67V2202.08C99.791 2207.67 98.8097 2212.15 96.847 2215.52C94.8843 2218.89 91.6203 2220.58 87.055 2220.58ZM87.055 2194.34C89.5723 2194.34 91.5137 2193.14 92.879 2190.75V2183.07C92.879 2176.59 90.9377 2173.34 87.055 2173.34C84.9217 2173.34 83.3857 2174.24 82.447 2176.03C81.551 2177.78 81.103 2180.06 81.103 2182.88C81.103 2185.48 81.2097 2187.55 81.423 2189.09C81.6363 2190.62 82.1697 2191.88 83.023 2192.86C83.8763 2193.85 85.2203 2194.34 87.055 2194.34ZM119.18 2220.58C115.127 2220.58 112.012 2219.47 109.836 2217.25C107.66 2215.03 106.529 2211.85 106.444 2207.71V2207.14H113.292C113.292 2209.78 113.719 2211.74 114.572 2213.02C115.468 2214.26 117.025 2214.88 119.244 2214.88C123.084 2214.88 125.004 2211.19 125.004 2203.81V2195.94C124.321 2197.05 123.34 2197.92 122.06 2198.56C120.823 2199.2 119.287 2199.52 117.452 2199.52C113.399 2199.52 110.519 2198.24 108.812 2195.68C107.148 2193.08 106.316 2189.37 106.316 2184.54C106.316 2179.47 107.361 2175.39 109.452 2172.32C111.543 2169.25 114.785 2167.71 119.18 2167.71C123.447 2167.71 126.625 2169.29 128.716 2172.45C130.849 2175.56 131.916 2179.64 131.916 2184.67V2202.08C131.916 2207.67 130.935 2212.15 128.972 2215.52C127.009 2218.89 123.745 2220.58 119.18 2220.58ZM119.18 2194.34C121.697 2194.34 123.639 2193.14 125.004 2190.75V2183.07C125.004 2176.59 123.063 2173.34 119.18 2173.34C117.047 2173.34 115.511 2174.24 114.572 2176.03C113.676 2177.78 113.228 2180.06 113.228 2182.88C113.228 2185.48 113.335 2187.55 113.548 2189.09C113.761 2190.62 114.295 2191.88 115.148 2192.86C116.001 2193.85 117.345 2194.34 119.18 2194.34ZM152.073 2220.58C147.806 2220.58 144.606 2219.02 142.473 2215.9C140.382 2212.75 139.337 2208.63 139.337 2203.55V2186.08C139.337 2180.49 140.318 2176.03 142.281 2172.7C144.244 2169.38 147.508 2167.71 152.073 2167.71C156.084 2167.71 159.177 2168.8 161.353 2170.98C163.529 2173.15 164.66 2176.27 164.745 2180.32L164.809 2181.09H157.897C157.897 2178.44 157.47 2176.5 156.617 2175.26C155.764 2173.98 154.249 2173.34 152.073 2173.34C148.148 2173.34 146.185 2177.03 146.185 2184.42V2192.29C146.868 2191.18 147.849 2190.3 149.129 2189.66C150.452 2189.02 151.988 2188.7 153.737 2188.7C157.79 2188.7 160.67 2190.01 162.377 2192.61C164.084 2195.17 164.937 2198.86 164.937 2203.68C164.937 2208.76 163.892 2212.85 161.801 2215.97C159.71 2219.04 156.468 2220.58 152.073 2220.58ZM152.073 2214.88C154.206 2214.88 155.721 2214.01 156.617 2212.26C157.556 2210.51 158.025 2208.2 158.025 2205.34C158.025 2202.74 157.918 2200.67 157.705 2199.14C157.492 2197.6 156.958 2196.34 156.105 2195.36C155.252 2194.38 153.908 2193.89 152.073 2193.89C150.75 2193.89 149.577 2194.23 148.553 2194.91C147.572 2195.59 146.782 2196.43 146.185 2197.41V2205.15C146.185 2208.1 146.633 2210.46 147.529 2212.26C148.468 2214.01 149.982 2214.88 152.073 2214.88Z" fill="#285064"/>
<path d="M48.624 2918.14L61.808 2897.59C62.448 2896.57 62.8747 2895.93 63.088 2895.67C64.5813 2893.28 65.6693 2891.3 66.352 2889.72C67.0347 2888.14 67.376 2886.24 67.376 2884.02C67.376 2881.55 66.9707 2879.65 66.16 2878.33C65.3493 2877.01 64.0267 2876.34 62.192 2876.34C58.096 2876.34 56.048 2879.52 56.048 2885.88V2887.61H49.2V2885.82C49.2 2880.95 50.2027 2877.22 52.208 2874.62C54.2133 2872.01 57.4347 2870.71 61.872 2870.71C65.968 2870.71 69.0613 2871.89 71.152 2874.23C73.2427 2876.54 74.288 2879.82 74.288 2884.09C74.288 2886.18 74.032 2888.06 73.52 2889.72C73.0507 2891.34 72.4747 2892.75 71.792 2893.94C71.1093 2895.14 70.0427 2896.85 68.592 2899.06L56.688 2917.24H73.072V2923H48.624V2918.14ZM93.1385 2923.58C88.8718 2923.58 85.6505 2922.19 83.4745 2919.42C81.3412 2916.64 80.2745 2912.93 80.2745 2908.28V2885.94C80.2745 2881.21 81.3198 2877.5 83.4105 2874.81C85.5438 2872.08 88.7865 2870.71 93.1385 2870.71C97.4478 2870.71 100.648 2872.08 102.739 2874.81C104.872 2877.5 105.939 2881.21 105.939 2885.94V2908.28C105.939 2912.97 104.872 2916.71 102.739 2919.48C100.605 2922.21 97.4052 2923.58 93.1385 2923.58ZM93.1385 2917.94C97.0638 2917.94 99.0265 2914.74 99.0265 2908.34V2885.88C99.0265 2882.94 98.5998 2880.61 97.7465 2878.9C96.9358 2877.15 95.3998 2876.28 93.1385 2876.28C90.8772 2876.28 89.3198 2877.15 88.4665 2878.9C87.6132 2880.61 87.1865 2882.94 87.1865 2885.88V2908.34C87.1865 2914.74 89.1705 2917.94 93.1385 2917.94ZM126.201 2923.58C121.934 2923.58 118.713 2922.19 116.537 2919.42C114.404 2916.64 113.337 2912.93 113.337 2908.28V2885.94C113.337 2881.21 114.382 2877.5 116.473 2874.81C118.606 2872.08 121.849 2870.71 126.201 2870.71C130.51 2870.71 133.71 2872.08 135.801 2874.81C137.934 2877.5 139.001 2881.21 139.001 2885.94V2908.28C139.001 2912.97 137.934 2916.71 135.801 2919.48C133.668 2922.21 130.468 2923.58 126.201 2923.58ZM126.201 2917.94C130.126 2917.94 132.089 2914.74 132.089 2908.34V2885.88C132.089 2882.94 131.662 2880.61 130.809 2878.9C129.998 2877.15 128.462 2876.28 126.201 2876.28C123.94 2876.28 122.382 2877.15 121.529 2878.9C120.676 2880.61 120.249 2882.94 120.249 2885.88V2908.34C120.249 2914.74 122.233 2917.94 126.201 2917.94ZM159.264 2923.58C154.997 2923.58 151.776 2922.19 149.6 2919.42C147.466 2916.64 146.4 2912.93 146.4 2908.28V2885.94C146.4 2881.21 147.445 2877.5 149.536 2874.81C151.669 2872.08 154.912 2870.71 159.264 2870.71C163.573 2870.71 166.773 2872.08 168.864 2874.81C170.997 2877.5 172.064 2881.21 172.064 2885.94V2908.28C172.064 2912.97 170.997 2916.71 168.864 2919.48C166.73 2922.21 163.53 2923.58 159.264 2923.58ZM159.264 2917.94C163.189 2917.94 165.152 2914.74 165.152 2908.34V2885.88C165.152 2882.94 164.725 2880.61 163.872 2878.9C163.061 2877.15 161.525 2876.28 159.264 2876.28C157.002 2876.28 155.445 2877.15 154.592 2878.9C153.738 2880.61 153.312 2882.94 153.312 2885.88V2908.34C153.312 2914.74 155.296 2917.94 159.264 2917.94Z" fill="#285064"/>
<path d="M48.624 3259.14L61.808 3238.59C62.448 3237.57 62.8747 3236.93 63.088 3236.67C64.5813 3234.28 65.6693 3232.3 66.352 3230.72C67.0347 3229.14 67.376 3227.24 67.376 3225.02C67.376 3222.55 66.9707 3220.65 66.16 3219.33C65.3493 3218.01 64.0267 3217.34 62.192 3217.34C58.096 3217.34 56.048 3220.52 56.048 3226.88V3228.61H49.2V3226.82C49.2 3221.95 50.2027 3218.22 52.208 3215.62C54.2133 3213.01 57.4347 3211.71 61.872 3211.71C65.968 3211.71 69.0613 3212.89 71.152 3215.23C73.2427 3217.54 74.288 3220.82 74.288 3225.09C74.288 3227.18 74.032 3229.06 73.52 3230.72C73.0507 3232.34 72.4747 3233.75 71.792 3234.94C71.1093 3236.14 70.0427 3237.85 68.592 3240.06L56.688 3258.24H73.072V3264H48.624V3259.14ZM93.1385 3264.58C88.8718 3264.58 85.6505 3263.19 83.4745 3260.42C81.3412 3257.64 80.2745 3253.93 80.2745 3249.28V3226.94C80.2745 3222.21 81.3198 3218.5 83.4105 3215.81C85.5438 3213.08 88.7865 3211.71 93.1385 3211.71C97.4478 3211.71 100.648 3213.08 102.739 3215.81C104.872 3218.5 105.939 3222.21 105.939 3226.94V3249.28C105.939 3253.97 104.872 3257.71 102.739 3260.48C100.605 3263.21 97.4052 3264.58 93.1385 3264.58ZM93.1385 3258.94C97.0638 3258.94 99.0265 3255.74 99.0265 3249.34V3226.88C99.0265 3223.94 98.5998 3221.61 97.7465 3219.9C96.9358 3218.15 95.3998 3217.28 93.1385 3217.28C90.8772 3217.28 89.3198 3218.15 88.4665 3219.9C87.6132 3221.61 87.1865 3223.94 87.1865 3226.88V3249.34C87.1865 3255.74 89.1705 3258.94 93.1385 3258.94ZM126.201 3264.58C121.934 3264.58 118.713 3263.19 116.537 3260.42C114.404 3257.64 113.337 3253.93 113.337 3249.28V3226.94C113.337 3222.21 114.382 3218.5 116.473 3215.81C118.606 3213.08 121.849 3211.71 126.201 3211.71C130.51 3211.71 133.71 3213.08 135.801 3215.81C137.934 3218.5 139.001 3222.21 139.001 3226.94V3249.28C139.001 3253.97 137.934 3257.71 135.801 3260.48C133.668 3263.21 130.468 3264.58 126.201 3264.58ZM126.201 3258.94C130.126 3258.94 132.089 3255.74 132.089 3249.34V3226.88C132.089 3223.94 131.662 3221.61 130.809 3219.9C129.998 3218.15 128.462 3217.28 126.201 3217.28C123.94 3217.28 122.382 3218.15 121.529 3219.9C120.676 3221.61 120.249 3223.94 120.249 3226.88V3249.34C120.249 3255.74 122.233 3258.94 126.201 3258.94ZM157.92 3264.58C153.781 3264.58 150.624 3263.42 148.448 3261.12C146.314 3258.77 145.248 3255.49 145.248 3251.26V3249.54H152.032V3250.69C152.117 3253.33 152.565 3255.36 153.376 3256.77C154.229 3258.18 155.744 3258.88 157.92 3258.88C160.224 3258.88 161.781 3258.09 162.592 3256.51C163.445 3254.89 163.872 3252.5 163.872 3249.34C163.872 3246.44 163.338 3244.18 162.272 3242.56C161.205 3240.9 159.477 3239.98 157.088 3239.81C156.917 3239.77 156.597 3239.74 156.128 3239.74V3232.9H157.024C159.456 3232.81 161.205 3232.17 162.272 3230.98C163.338 3229.78 163.872 3227.8 163.872 3225.02C163.872 3222.46 163.445 3220.54 162.592 3219.26C161.738 3217.94 160.202 3217.28 157.984 3217.28C155.765 3217.28 154.229 3217.98 153.376 3219.39C152.565 3220.8 152.117 3222.87 152.032 3225.6V3226.69H145.248V3224.96C145.248 3220.74 146.314 3217.47 148.448 3215.17C150.624 3212.86 153.802 3211.71 157.984 3211.71C162.165 3211.71 165.322 3212.89 167.456 3215.23C169.632 3217.54 170.72 3220.8 170.72 3225.02C170.72 3228.05 170.058 3230.53 168.736 3232.45C167.413 3234.37 165.6 3235.67 163.296 3236.35C165.642 3237.08 167.456 3238.55 168.736 3240.77C170.058 3242.99 170.72 3245.85 170.72 3249.34C170.72 3254.17 169.674 3257.92 167.584 3260.61C165.536 3263.25 162.314 3264.58 157.92 3264.58Z" fill="#285064"/>
<path d="M15 51L14.9999 3247" stroke="#2D7E97" stroke-width="4"/>
<circle cx="15" cy="52" r="15" fill="#2D7E97"/>
<circle cx="15" cy="772" r="15" fill="#2D7E97"/>
<circle cx="15" cy="1128" r="15" fill="#2D7E97"/>
<circle cx="15" cy="1551" r="15" fill="#2D7E97"/>
<circle cx="15" cy="2195" r="15" fill="#2D7E97"/>
<circle cx="15" cy="2898" r="15" fill="#2D7E97"/>
<circle cx="15" cy="3241" r="15" fill="#2D7E97"/>
</svg>
