<svg width="177" height="649" viewBox="0 0 177 649" fill="none" xmlns="http://www.w3.org/2000/svg">
<path d="M62.944 33.12C62.8587 33.248 61.5573 33.5467 59.04 34.016C56.5653 34.4853 54.8587 34.8053 53.92 34.976V29.792C59.1253 28.5547 62.688 26.6773 64.608 24.16H69.792V76H62.944V33.12ZM93.055 76.576C89.0017 76.576 85.887 75.4667 83.711 73.248C81.535 71.0293 80.4043 67.8507 80.319 63.712V63.136H87.167C87.167 65.7813 87.5937 67.744 88.447 69.024C89.343 70.2613 90.9003 70.88 93.119 70.88C96.959 70.88 98.879 67.1893 98.879 59.808V51.936C98.1963 53.0453 97.215 53.92 95.935 54.56C94.6977 55.2 93.1617 55.52 91.327 55.52C87.2737 55.52 84.3937 54.24 82.687 51.68C81.023 49.0773 80.191 45.3653 80.191 40.544C80.191 35.4667 81.2363 31.392 83.327 28.32C85.4177 25.248 88.6603 23.712 93.055 23.712C97.3217 23.712 100.5 25.2907 102.591 28.448C104.724 31.5627 105.791 35.6373 105.791 40.672V58.08C105.791 63.6693 104.81 68.1493 102.847 71.52C100.884 74.8907 97.6203 76.576 93.055 76.576ZM93.055 50.336C95.5723 50.336 97.5137 49.1413 98.879 46.752V39.072C98.879 32.5867 96.9377 29.344 93.055 29.344C90.9217 29.344 89.3857 30.24 88.447 32.032C87.551 33.7813 87.103 36.064 87.103 38.88C87.103 41.4827 87.2097 43.552 87.423 45.088C87.6363 46.624 88.1697 47.8827 89.023 48.864C89.8763 49.8453 91.2203 50.336 93.055 50.336ZM123.546 29.536H109.658V24.16H130.394V27.488L120.794 76H114.202L123.546 29.536ZM149.913 62.112H134.873V54.944L148.377 24.16H156.441V56.032H162.265V62.112H156.441V76H149.913V62.112ZM149.913 56.032V32.48L141.465 56.032H149.913Z" fill="#285064"/>
<path d="M56.944 374.12C56.8587 374.248 55.5573 374.547 53.04 375.016C50.5653 375.485 48.8587 375.805 47.92 375.976V370.792C53.1253 369.555 56.688 367.677 58.608 365.16H63.792V417H56.944V374.12ZM87.055 417.576C83.0017 417.576 79.887 416.467 77.711 414.248C75.535 412.029 74.4043 408.851 74.319 404.712V404.136H81.167C81.167 406.781 81.5937 408.744 82.447 410.024C83.343 411.261 84.9003 411.88 87.119 411.88C90.959 411.88 92.879 408.189 92.879 400.808V392.936C92.1963 394.045 91.215 394.92 89.935 395.56C88.6977 396.2 87.1617 396.52 85.327 396.52C81.2737 396.52 78.3937 395.24 76.687 392.68C75.023 390.077 74.191 386.365 74.191 381.544C74.191 376.467 75.2363 372.392 77.327 369.32C79.4177 366.248 82.6603 364.712 87.055 364.712C91.3217 364.712 94.5003 366.291 96.591 369.448C98.7243 372.563 99.791 376.637 99.791 381.672V399.08C99.791 404.669 98.8097 409.149 96.847 412.52C94.8843 415.891 91.6203 417.576 87.055 417.576ZM87.055 391.336C89.5723 391.336 91.5137 390.141 92.879 387.752V380.072C92.879 373.587 90.9377 370.344 87.055 370.344C84.9217 370.344 83.3857 371.24 82.447 373.032C81.551 374.781 81.103 377.064 81.103 379.88C81.103 382.483 81.2097 384.552 81.423 386.088C81.6363 387.624 82.1697 388.883 83.023 389.864C83.8763 390.845 85.2203 391.336 87.055 391.336ZM119.5 417.576C114.977 417.576 111.713 416.275 109.708 413.672C107.703 411.069 106.7 407.315 106.7 402.408C106.7 399.123 107.233 396.499 108.3 394.536C109.409 392.573 111.009 390.952 113.1 389.672C109.26 387.112 107.34 383.251 107.34 378.088C107.34 373.864 108.343 370.579 110.348 368.232C112.353 365.885 115.404 364.712 119.5 364.712C123.553 364.712 126.561 365.885 128.524 368.232C130.529 370.579 131.532 373.864 131.532 378.088C131.532 380.861 131.041 383.187 130.06 385.064C129.079 386.899 127.649 388.435 125.772 389.672C127.863 390.995 129.463 392.637 130.572 394.6C131.681 396.563 132.236 399.165 132.236 402.408C132.236 407.272 131.233 411.027 129.228 413.672C127.223 416.275 123.98 417.576 119.5 417.576ZM119.5 386.536C123.041 386.493 124.812 383.549 124.812 377.704C124.812 375.4 124.385 373.544 123.532 372.136C122.721 370.728 121.377 370.024 119.5 370.024C117.623 370.024 116.236 370.728 115.34 372.136C114.487 373.544 114.06 375.4 114.06 377.704C114.06 380.264 114.465 382.376 115.276 384.04C116.087 385.661 117.495 386.493 119.5 386.536ZM119.5 412.136C121.804 412.136 123.404 411.304 124.3 409.64C125.196 407.933 125.644 405.565 125.644 402.536C125.644 399.763 125.153 397.501 124.172 395.752C123.233 394.003 121.676 393.107 119.5 393.064C117.281 393.107 115.681 394.003 114.7 395.752C113.719 397.501 113.228 399.763 113.228 402.536C113.228 405.565 113.676 407.933 114.572 409.64C115.511 411.304 117.153 412.136 119.5 412.136ZM151.438 417.576C146.915 417.576 143.651 416.275 141.646 413.672C139.64 411.069 138.638 407.315 138.638 402.408C138.638 399.123 139.171 396.499 140.238 394.536C141.347 392.573 142.947 390.952 145.038 389.672C141.198 387.112 139.278 383.251 139.278 378.088C139.278 373.864 140.28 370.579 142.286 368.232C144.291 365.885 147.342 364.712 151.438 364.712C155.491 364.712 158.499 365.885 160.462 368.232C162.467 370.579 163.47 373.864 163.47 378.088C163.47 380.861 162.979 383.187 161.998 385.064C161.016 386.899 159.587 388.435 157.71 389.672C159.8 390.995 161.4 392.637 162.51 394.6C163.619 396.563 164.174 399.165 164.174 402.408C164.174 407.272 163.171 411.027 161.166 413.672C159.16 416.275 155.918 417.576 151.438 417.576ZM151.438 386.536C154.979 386.493 156.75 383.549 156.75 377.704C156.75 375.4 156.323 373.544 155.47 372.136C154.659 370.728 153.315 370.024 151.438 370.024C149.56 370.024 148.174 370.728 147.278 372.136C146.424 373.544 145.998 375.4 145.998 377.704C145.998 380.264 146.403 382.376 147.214 384.04C148.024 385.661 149.432 386.493 151.438 386.536ZM151.438 412.136C153.742 412.136 155.342 411.304 156.238 409.64C157.134 407.933 157.582 405.565 157.582 402.536C157.582 399.763 157.091 397.501 156.11 395.752C155.171 394.003 153.614 393.107 151.438 393.064C149.219 393.107 147.619 394.003 146.638 395.752C145.656 397.501 145.166 399.763 145.166 402.536C145.166 405.565 145.614 407.933 146.51 409.64C147.448 411.304 149.091 412.136 151.438 412.136Z" fill="#285064"/>
<path d="M56.944 580.12C56.8587 580.248 55.5573 580.547 53.04 581.016C50.5653 581.485 48.8587 581.805 47.92 581.976V576.792C53.1253 575.555 56.688 573.677 58.608 571.16H63.792V623H56.944V580.12ZM87.055 623.576C83.0017 623.576 79.887 622.467 77.711 620.248C75.535 618.029 74.4043 614.851 74.319 610.712V610.136H81.167C81.167 612.781 81.5937 614.744 82.447 616.024C83.343 617.261 84.9003 617.88 87.119 617.88C90.959 617.88 92.879 614.189 92.879 606.808V598.936C92.1963 600.045 91.215 600.92 89.935 601.56C88.6977 602.2 87.1617 602.52 85.327 602.52C81.2737 602.52 78.3937 601.24 76.687 598.68C75.023 596.077 74.191 592.365 74.191 587.544C74.191 582.467 75.2363 578.392 77.327 575.32C79.4177 572.248 82.6603 570.712 87.055 570.712C91.3217 570.712 94.5003 572.291 96.591 575.448C98.7243 578.563 99.791 582.637 99.791 587.672V605.08C99.791 610.669 98.8097 615.149 96.847 618.52C94.8843 621.891 91.6203 623.576 87.055 623.576ZM87.055 597.336C89.5723 597.336 91.5137 596.141 92.879 593.752V586.072C92.879 579.587 90.9377 576.344 87.055 576.344C84.9217 576.344 83.3857 577.24 82.447 579.032C81.551 580.781 81.103 583.064 81.103 585.88C81.103 588.483 81.2097 590.552 81.423 592.088C81.6363 593.624 82.1697 594.883 83.023 595.864C83.8763 596.845 85.2203 597.336 87.055 597.336ZM119.18 623.576C115.127 623.576 112.012 622.467 109.836 620.248C107.66 618.029 106.529 614.851 106.444 610.712V610.136H113.292C113.292 612.781 113.719 614.744 114.572 616.024C115.468 617.261 117.025 617.88 119.244 617.88C123.084 617.88 125.004 614.189 125.004 606.808V598.936C124.321 600.045 123.34 600.92 122.06 601.56C120.823 602.2 119.287 602.52 117.452 602.52C113.399 602.52 110.519 601.24 108.812 598.68C107.148 596.077 106.316 592.365 106.316 587.544C106.316 582.467 107.361 578.392 109.452 575.32C111.543 572.248 114.785 570.712 119.18 570.712C123.447 570.712 126.625 572.291 128.716 575.448C130.849 578.563 131.916 582.637 131.916 587.672V605.08C131.916 610.669 130.935 615.149 128.972 618.52C127.009 621.891 123.745 623.576 119.18 623.576ZM119.18 597.336C121.697 597.336 123.639 596.141 125.004 593.752V586.072C125.004 579.587 123.063 576.344 119.18 576.344C117.047 576.344 115.511 577.24 114.572 579.032C113.676 580.781 113.228 583.064 113.228 585.88C113.228 588.483 113.335 590.552 113.548 592.088C113.761 593.624 114.295 594.883 115.148 595.864C116.001 596.845 117.345 597.336 119.18 597.336ZM149.671 576.536H135.783V571.16H156.519V574.488L146.919 623H140.327L149.671 576.536Z" fill="#285064"/>
<circle cx="15" cy="49" r="15" fill="#2D7E97"/>
<circle cx="15" cy="393" r="15" fill="#2D7E97"/>
<circle cx="15" cy="599" r="15" fill="#2D7E97"/>
<path d="M15 48V598" stroke="#2D7E97" stroke-width="4"/>
</svg>
