<svg width="27" height="27" viewBox="0 0 27 27" fill="none" xmlns="http://www.w3.org/2000/svg">
<path fill-rule="evenodd" clip-rule="evenodd" d="M6.88599 0H18.2766L24.6047 6.32813V22.7813C24.6047 24.1804 23.4726 25.3125 22.0735 25.3125H6.88599C5.48688 25.3125 4.35474 24.1804 4.35474 22.7813V2.53125C4.35474 1.13214 5.48688 0 6.88599 0ZM7.35071 16.4877H8.59161C9.91656 16.4877 10.8411 15.6176 10.8411 14.3223C10.8411 13.0172 9.95612 12.147 8.66083 12.147H6.03564V18.4406H7.35071V16.4877ZM12.0523 18.4406H14.5292C16.4128 18.4406 17.4807 17.2936 17.4807 15.2468C17.4807 13.2742 16.398 12.1421 14.5292 12.1421H12.0523V18.4406ZM20.0416 13.2742H22.8447V12.147H18.7265V18.4406H20.0416V15.9933H22.6025V14.9156H20.0416V13.2742ZM8.31105 13.2298H7.35194V15.4199H8.30611C9.06252 15.4199 9.50252 15.0343 9.50252 14.3323C9.50252 13.6105 9.0724 13.2298 8.31105 13.2298ZM14.3141 13.2692H13.3649V17.3133H14.3141C15.4759 17.3133 16.1335 16.5964 16.1335 15.2665C16.1335 13.996 15.4561 13.2692 14.3141 13.2692Z" fill="#2D7E97"/>
</svg>
