<svg width="40" height="40" viewBox="0 0 40 40" fill="none" xmlns="http://www.w3.org/2000/svg">
<path d="M0 20C0 8.95431 8.95431 0 20 0C31.0457 0 40 8.95431 40 20C40 31.0457 31.0457 40 20 40C8.95431 40 0 31.0457 0 20Z" fill="#2D7E97" fill-opacity="0.77"/>
<path d="M20 24C19.5972 24 19.2119 23.8406 18.9263 23.5547L15.5703 20.1985C14.9741 19.6078 14.9741 18.6469 15.5703 18.0515C16.1606 17.4563 17.1216 17.4563 17.7163 18.0515L18.5 18.8344V7.5C18.5 6.67035 19.1694 6 20 6C20.8291 6 21.5 6.67035 21.5 7.5V18.8344L22.2822 18.0515C22.5781 17.7563 22.9663 17.6062 23.356 17.6062C23.7456 17.6062 24.1338 17.7563 24.4297 18.0515C25.0244 18.6422 25.0244 19.6031 24.4297 20.1985L21.0737 23.5547C20.7866 23.8406 20.4028 24 20 24Z" fill="white"/>
<path d="M26 24C26 23.1703 26.6709 22.5 27.5 22.5C28.3291 22.5 29 23.1703 29 24V30H11V24C11 23.1703 11.6709 22.5 12.5 22.5C13.3291 22.5 14 23.1703 14 24V27H26V24Z" fill="white"/>
</svg>
