<svg width="28" height="27" viewBox="0 0 28 27" fill="none" xmlns="http://www.w3.org/2000/svg">
<path d="M25.6609 18.1849C23.8448 18.1849 22.1012 17.8994 20.4739 17.3713C19.9654 17.2143 19.3988 17.3285 18.9919 17.7139L15.7955 20.8543C11.6836 18.7987 8.31282 15.5013 6.22058 11.4474L9.41706 8.2927C9.82388 7.92156 9.94011 7.36486 9.78029 6.86525C9.2427 5.2665 8.95211 3.55356 8.95211 1.76925C8.95211 0.98415 8.29829 0.341797 7.49917 0.341797H2.41388C1.61476 0.341797 0.960938 0.98415 0.960938 1.76925C0.960938 15.173 12.0178 26.0359 25.6609 26.0359C26.4601 26.0359 27.1139 25.3936 27.1139 24.6085V19.6124C27.1139 18.8273 26.4601 18.1849 25.6609 18.1849ZM27.1139 4.62415H22.7551V0.341797H19.8492V4.62415H15.4903V7.47905H19.8492V11.7614H22.7551V7.47905H27.1139V4.62415Z" fill="white"/>
</svg>
