<svg width="15" height="15" viewBox="0 0 15 15" fill="none" xmlns="http://www.w3.org/2000/svg">
<path fill-rule="evenodd" clip-rule="evenodd" d="M14.3115 10.497L14.393 10.6464C14.5953 11.0331 15.1987 12.1728 14.4113 13.1923C14.0744 13.6464 13.3502 14.4814 12.4072 14.8681L12.2104 14.9413L12.1289 14.9443C11.9147 14.9824 11.6602 14.9912 11.4725 14.9912C10.7428 14.9912 6.94612 14.8183 3.67677 11.3964C0.225229 7.78998 -0.0411892 3.18745 0.354319 2.28508C0.779123 1.36813 1.64887 0.673756 2.12678 0.345654C2.3227 0.219654 2.51039 0.137657 2.71272 0.0790634C2.89399 0.0321426 3.05238 0.0116577 3.21076 0.0116577C3.84431 0.0116577 4.36433 0.319847 4.64814 0.487904L4.65547 0.492138L4.8047 0.582947C5.83283 1.21575 6.2375 4.41203 6.2375 4.44132C6.2082 5.11515 5.75685 5.61617 5.11231 6.24897C5.47853 6.94918 6.15785 7.84565 6.64765 8.34662C7.12464 8.83585 7.92207 9.50676 8.65998 9.93746C9.23127 9.40714 9.64417 9.06147 10.1395 8.9472L10.4562 8.90326L10.5258 8.90618C10.5551 8.90618 13.7311 9.44525 14.3115 10.497ZM11.8121 13.2744C12.2608 13.0781 12.7524 12.5713 13.06 12.1611C13.1506 12.0409 13.104 11.8447 12.8989 11.458L12.8668 11.3994C12.4832 11.1504 11.0156 10.7167 10.4993 10.6171C10.3427 10.6983 9.93806 11.0757 9.64417 11.3494L9.60298 11.3877C9.22853 11.748 8.64259 11.8447 8.16468 11.6074C7.17408 11.1034 6.08186 10.207 5.43458 9.53904C4.7754 8.86521 3.84614 7.62301 3.43049 6.65913C3.23731 6.18746 3.3426 5.64839 3.69142 5.27337L3.72071 5.24115L3.76924 5.19331C4.02467 4.9416 4.4275 4.54398 4.53187 4.36814C4.45313 3.85247 4.08692 2.3847 3.84889 1.9892L3.77931 1.94525C3.62092 1.85152 3.3252 1.67574 3.16407 1.71677C3.12013 1.73142 3.07893 1.75482 3.06428 1.76363C2.55158 2.11811 2.12403 2.55757 1.92994 2.92962C1.84571 3.48626 1.97389 7.15718 4.90724 10.2216C7.69868 13.1426 10.8655 13.292 11.4725 13.292C11.6538 13.292 11.7682 13.2802 11.8121 13.2744Z" fill="white"/>
</svg>
